<?xml version="1.0" encoding="UTF-8"?>
<svg id="Layer_1" data-name="Layer 1" xmlns="http://www.w3.org/2000/svg" viewBox="0 0 1758.38 1648.34">
  <defs>
    <style>
      .cls-1 {
        fill: #002640;
      }

      .cls-1, .cls-2 {
        stroke-width: 0px;
      }

      .cls-2 {
        fill: #6f8f9f;
      }
    </style>
  </defs>
  <path class="cls-1" d="M875.47,1034.03c-7.02-4.66-11.68-8.76-11.68-18.24.24-174.3.12-277.18,0-451.47,0-7.4,2.22-13.18,7.1-18.84,14.72-17.34,31.99-31.99,48.21-47.79,4.46-4.36,9.78-5.12,15.62-5.12,23.48.06,46.95.18,70.49-.06,7.58-.12,13.35,2.32,18.41,7.86,9.66,10.6,19.48,21.1,29.61,31.29,5.96,6.02,13.23,12.26,21.21,3.8,7.2-7.62,1.42-14.12-4.06-20.32-6.14-6.86-14.6-11.86-19.06-22.58h214.21c4.76,0,9.66.06,14.3-.78,5.78-1.08,9.24-5,9.24-11.02s-3.4-9.96-9.12-11.09c-4.22-.88-8.64-.88-13-.88-29.55-.06-59.17.06-88.78-.12-4.4,0-9.48,1.84-15.56-4.42,7.58-6.74,15.56-12.88,22.29-20.08,8.04-8.7,16.15-11.92,28.66-9.84,28.07,4.76,51.97-21.51,45.77-48.39-5.06-21.69-25.33-35.51-47.01-31.93-22.89,3.76-36.95,23.12-32.71,48.09,1.84,10.66-1.08,17.16-8.34,23.89-11.15,10.36-21.99,21.16-32.31,32.35-7.02,7.68-14.84,10.66-25.26,10.6-60.07-.34-120.13.12-180.2-.4-13.7-.12-24.13,3.62-33.31,13.94-10.48,11.74-22.22,22.4-36.11,36.29,0-33.49-.06-62.57.06-91.66,0-5.24,3.58-8.7,7.04-12.1,20.26-20.32,40.51-40.75,60.95-60.95,11.57-11.5,43.33-11.38,55.01.06,13.06,12.82,25.86,25.8,38.79,38.73,3.82,3.76,7.74,7.22,13.71,5.72,9.34-2.32,11.26-12.16,3.44-20.5-9.24-9.96-18.94-19.43-28.42-29.13l1.08-3.04c18.82,4.28,31.4-4.66,42.11-17.88,4.48-5.54,10.2-5.08,16.63-3.7,12.88,2.74,25.08,1.18,35.75-7.46,12.4-10.06,17.4-26.51,13.7-41.77,33.01,0,66.02-.42,98.98.42,16.21.42,28.55-4.04,38.85-16.44,8.94-10.67,17.64-18.41,35.21-14.72,22.83,4.88,44.69-18.06,43.81-41.07-.84-22.76-22.59-42.43-44.45-40.21-24.55,2.5-41.53,25.02-36.95,49.03,2.56,13.41-14.18,37.73-28.42,38.79-17.59,1.26-35.35.3-54.65.3,3.76-8.34,9.9-12.04,14.18-17.22,4.06-4.88,5.66-10.08.96-15.2-4.96-5.36-11.15-5.36-16.33-.72-8.46,7.52-16.62,15.43-24.25,23.77-6.38,6.92-13.46,11.21-22.88,9.6-7.52-1.3-14.48-1.6-21.09-.94-10.66-7.04-24.61-8.65-37.59-3.58-18.83,7.44-30.09,28.24-24.37,47.91,2.44,8.52.6,13.58-5.3,19.42-6.08,5.96-12.46,8.88-20.92,8.46-8.71-.4-17.59,1.08-26.11-.28-44.87-7.16-80.44,7.02-107.2,44.21-5.06,6.96-11.44,13.76-21.39,19,0-39.31,0-76.62.06-113.99,0-5.78,4.78-7.62,8.88-10.18,14.75-9.15,22.05-23.13,20.69-38.49,28.16-11.86,56.22-23.92,84.65-35,15.11-5.88,24.76-14.78,29.48-30.18,4.12-13.29,9.15-23.8,26.78-27.19,22.94-4.31,34.24-33.93,24.54-54.8-9.57-20.68-37.23-30.41-56.55-19.91-21.68,11.8-28.64,39.13-15.12,59.51,7.55,11.36,1.5,40.26-11.23,46.76-15.72,7.95-32.47,13.94-50.27,21.39.24-9.15,4.46-14.93,6.42-21.36,1.84-6.08,1.33-11.48-5-14.39-6.63-3.02-12.34-.63-15.33,5.66-4.9,10.2-9.37,20.66-13.18,31.29-2.74,7.53-6.71,13.47-13.56,16.41-7.49-9.82-19.16-16.27-31.38-16.56-.54-7.28-3.04-14.25-7.88-21.27-7.8-11.5-12.86-21.99-4.46-37.91,10.96-20.56-5.14-47.91-27.47-53.33-22.11-5.48-47.01,10.08-50.89,31.71-4.3,24.3,12.7,46.77,37.07,48.97,13.58,1.2,32.35,23.95,29.49,37.97-.12.52-.24,1.12-.36,1.66-7.46,5.3-13.17,13.06-15.79,22.17-2.86,9.82-2.14,19.42,1.74,27.82,3.32,7.46,9.22,14.01,17.34,19.07.54.36,1.12.66,1.72.96,3.1,1.6,6.5,3.16,6.62,6.66.36,20.09.18,40.17.18,63.1-5.96-5.54-9.48-8.7-12.82-12.04-6.02-6.08-12.1-12.16-18.12-18.24-3.16-3.16-6.26-6.26-9.36-9.4-16.27-16.41-32.56-32.85-48.9-49.2-1.84-2.07-3.65-4.16-5.36-6.3-19.18-24.19-42.17-36.17-73.29-30.75-9.42,1.6-16.51-2.68-22.88-9.6-7.64-8.34-15.8-16.27-24.25-23.77-5.2-4.64-11.39-4.64-16.33.72-4.7,5.12-3.1,10.3.96,15.2,4.28,5.18,10.42,8.88,14.18,17.22-19.3,0-37.07.96-54.65-.3-14.24-1.08-30.98-25.38-28.42-38.79,4.58-24.01-12.4-46.53-36.95-49.05-21.87-2.2-43.61,17.47-44.45,40.23-.9,23,20.98,45.95,43.79,41.05,17.59-3.7,26.29,4.06,35.23,14.72,10.3,12.4,22.64,16.87,38.85,16.45,38.67-1.02,77.46-.24,116.19-.42,7.74,0,14.18,1.66,19.9,7.5,4.46,4.54,8.94,9.03,13.41,13.53,1.44,1.59,2.93,3.14,4.43,4.67,33.49,34.25,66.92,68.52,100.47,102.73,4.94,5.06,9.18,10.06,9.12,17.92-.3,24.37-.06,48.81-.18,73.18,0,2.92,1.12,6.86-2.16,8.28-4.1,1.8-6.08-2.44-8.4-4.7-13.34-13.11-27.88-25.33-39.45-39.93-19.18-24.19-42.19-36.11-73.23-30.75-9.42,1.68-16.57-2.68-22.94-9.58-7.64-8.34-15.8-16.21-24.19-23.77-5.2-4.6-11.39-4.6-16.33.7-4.76,5.13-3.1,10.31.96,15.26,4.28,5.14,10.36,8.88,14.18,17.17-19.36,0-37.13,1-54.71-.3-14.24-1.02-30.92-25.39-28.36-38.73,4.52-24.01-12.46-46.61-37.01-49.11-21.87-2.2-43.61,17.46-44.45,40.29-.84,22.94,20.98,45.87,43.85,41.05,17.59-3.76,26.29,4.04,35.17,14.72,10.36,12.4,22.64,16.8,38.85,16.38,38.73-.94,77.46-.18,116.19-.36,7.8-.04,14.18,1.62,19.9,7.52,24.73,25.15,49.77,49.99,74.72,74.96,3.4,3.4,7.16,6.74,7.16,11.98.06,26.46.06,52.85.06,81.4-3.7-2.1-5.02-2.5-5.9-3.34-23.01-22.53-46.01-45.11-69.12-67.58-5.02-4.88-5.36-10.36-3.7-16.74,2.2-8.64,2.08-17.22-1.42-25.62-8.23-19.73-29.63-30.51-49.05-24.67-9.66,2.87-17.4,8.58-22.59,15.94h-84.24c-3.11-3.35-43.39-42.71-46.07-46.1-19.18-24.19-45.29-35.74-76.4-30.3-9.42,1.6-16.51-2.69-22.88-9.6-7.64-8.34-15.8-16.27-24.25-23.78-5.2-4.66-11.38-4.66-16.33.7-4.7,5.14-3.1,10.32.96,15.2,4.28,5.19,10.42,8.88,14.18,17.23-19.3,0-37.05.94-54.65-.3-14.24-1.08-30.98-25.39-28.42-38.79,4.58-24.01-12.4-46.55-36.95-49.05-21.86-2.2-43.61,17.46-44.45,40.23-.9,23,20.98,45.93,43.79,41.05,17.59-3.7,26.29,4.06,35.23,14.72,10.3,12.4,22.64,16.86,38.85,16.45,38.67-1.02,77.46-.24,116.19-.42,7.74,0,14.18,1.66,19.9,7.5,11.78,11.99,54.41,51.02,74.2,69.92,1.05,1,2.37,1.32,3.58,1.11h80.59c.13,2.35.43,4.73.99,7.13,4.76,20.93,23.95,34.09,46.29,30.63,8.64-1.3,15.44-1.84,22.41,5.3,26.99,27.77,54.51,55.07,82.04,82.36,5.36,5.3,7.52,11.14,7.52,18.59-.18,152.49-.18,233.62-.12,386.1,0,7.8-2.4,12.76-9.42,16.8-14.84,8.59-22.17,22.11-20.5,39.33,1.78,19.13,17.04,34.51,35.15,36.77,19.13,2.38,37.53-8.22,44.09-25.45,7.16-18.7,1.44-38.13-15.68-49.27M1219.23,377.39c10.02-.12,17.23,6.98,17.17,16.98,0,9.96-7.16,16.99-17.23,16.87-9.88-.06-17.82-7.58-17.82-16.81s8.53-16.86,17.88-17.04M1299.33,186.66c9.64-.06,18.24,8.82,17.82,18.48-.36,9-9.12,17.16-18.12,16.92-9.06-.18-17.4-8.88-17.28-17.88.18-9.12,8.58-17.52,17.58-17.52M1083.26,267.76c6.8-.42,12.76,2.92,16.09,8.1,1.66,2.62,2.68,5.72,2.74,9.06.18,8.7-8.35,17.58-17.23,18-4.76.24-9.3-1.96-12.62-5.48-3.16-3.4-5.14-8.04-5.02-13,.36-10.18,5.72-16.02,16.03-16.68M1014.4,76.48c8.88-3.79,20.23,1.08,23.57,10.15,3.16,8.43-1.77,19.34-10.17,22.61-8.41,3.34-19.48-1.47-22.85-9.81-3.35-8.47,1.15-19.48,9.45-22.95M820.65,117.41c-2.68,8.64-13.35,14.3-21.93,11.68-8.76-2.62-14.54-13.06-12.04-21.69,2.56-9.3,13.47-15.14,22.65-12.04,8.52,2.8,14,13.47,11.32,22.05M502.36,176.86c-9,.24-17.76-7.94-18.12-16.93-.42-9.64,8.16-18.52,17.82-18.46,9,0,17.4,8.4,17.58,17.52.12,9-8.22,17.7-17.28,17.88M547.56,353.02c-9.06.24-17.82-7.98-18.18-16.92-.42-9.66,8.16-18.54,17.82-18.54,9,0,17.4,8.4,17.58,17.52.18,9-8.22,17.7-17.22,17.94M312.12,354.11c-9,.24-17.76-7.92-18.12-16.92-.42-9.66,8.16-18.53,17.82-18.48,9,0,17.4,8.4,17.58,17.52.12,9-8.22,17.7-17.28,17.88M723.1,500.2c-10.42-.18-16.08-5.54-16.5-16.09-.36-10.54,6.2-17.52,16.44-17.76,10.38-.24,17.35,6.56,17.35,16.93.06,10.3-6.8,17.1-17.29,16.92M841.21,238.68c-3.46-3.22-5.78-7.7-5.96-12.4-.24-8.41,6.8-16.45,15.02-17.94,1.06-.18,2.08-.3,3.16-.24,9,.3,17.22,9,17.04,18-.24,9.06-8.58,17.4-17.52,17.46-4.3,0-8.52-1.84-11.74-4.88M852.71,1084.86c-10.14,0-17.58-7.28-17.46-16.98.06-9.9,7.44-16.87,17.64-16.63,10.32.24,17.64,7.22,17.58,16.93-.06,9.7-7.5,16.74-17.76,16.68"/>
  <path class="cls-1" d="M744.45,588.52c-23.69-31.1-53.25-45.5-92.36-38.64-10.41,1.83-18.31-2.77-25.14-10.56-6.3-7.19-13.43-13.67-20.27-20.36-5.48-5.36-11.8-8.61-18.3-2.34-6.54,6.33-3.43,12.43,1.95,18.16,3.77,4.01,8.89,6.98,11.59,15.17-14.99,0-28.67-1.69-41.79.31-37.16,5.7-65.68-6.57-87.81-36.73-5.26-7.17-8.49-12.64-6.77-22.07,4.67-25.32-12.35-47.34-36.71-48.79-16.65-.99-29.97,5.85-38.34,20.14-8.38,14.33-7.77,29.34,1.35,43.31,9.55,14.64,23.88,20.85,40.59,17.17,11.09-2.44,18.04.69,25.14,8.44,9.99,10.9,21.15,20.73,31.14,31.63,7.07,7.73,15.02,10.51,25.38,10.45,56.14-.34,112.29-.01,168.43-.27,8.91-.04,15.72,2.49,21.93,9.01,13.5,14.19,26.66,28.96,41.68,41.4,16.77,13.89,22.61,30.11,20.71,51.38-1.03,11.38-3.47,16.32-15.75,16.12-36.99-.6-73.99-.46-110.98-.06-9.54.11-16.44-3.23-22.92-9.94-15.75-16.26-31.92-32.11-48.09-47.95-5.82-5.7-13.07-8.82-19.43-1.84-5.73,6.29-2.58,13.11,2.77,18.55,10.06,10.27,20.36,20.29,30.39,30.57,2.26,2.31,6.75,4.33,4.9,8.25-1.72,3.65-6.23,2.14-9.52,2.14-32.65.12-65.29-.21-97.93.25-9.67.15-15.8-2.77-21.41-11.09-11.18-16.56-29.52-21.75-47.07-15.23-16.89,6.27-27.41,22.35-26.75,40.81.61,17.55,12.44,32.37,29.66,37.16,17.73,4.93,36.65-1.99,46.1-18.55,4.4-7.71,9.63-9.76,17.79-9.72,48.75.25,97.48.1,146.23.19,3.28.01,6.95-1.18,13.2,5-10.15,8.77-20.62,17.08-30.15,26.35-5.82,5.67-10.64,8.07-19.33,5.75-19.03-5.09-37.61,3.83-46.58,20.39-8.73,16.12-5.81,34.85,7.49,47.98,13.43,13.28,32.79,15.93,49.3,6.75,15.53-8.61,23.52-26.77,18.82-45.98-1.96-8.06.19-13.09,5.69-18.4,13.16-12.7,26.17-25.57,38.75-38.84,6.15-6.5,12.82-9.42,21.83-9.22,21.75.48,43.52.12,65.28.16,17.2.03,17.28.07,17.28,17.62.01,98.9.01,126.43-.06,225.32-.02,27.1,2.11,26.96-24.33,24.33-31.95-3.17-56.71,5.51-75.55,31.69-8.31,11.56-18.45,16.42-34.4,13.92-23.89-3.74-43.13,15.63-43.42,39.6-.27,23.6,17.52,41.61,41.02,41.52,23.85-.09,43.94-19.52,39.94-43.13-2.86-16.87,3.67-26.17,14.54-35.68,4.91-4.28,9.58-8.92,13.82-13.86,6.15-7.17,13.47-10.08,22.97-9.78,16.51.52,33.07.31,49.6.06,15-.24,19.55-4.63,19.57-19.73.1-136.78,0-202.24.1-339.02.01-9.42-3.26-16.68-9.97-23.13-12.23-11.77-25.57-22.8-35.77-36.2M425,500.17c-10.39-.55-15.82-6.36-16.11-16.68-.28-10.38,6.68-17.22,17.02-17.14,10.33.06,17.01,6.99,16.78,17.41-.21,10.31-7.26,16.98-17.7,16.41M425.37,721.42c-9.72-.12-16.53-7.55-16.51-18.04.02-10.08,7.23-17.23,17.22-17.08,10.03.16,16.86,7.44,16.6,17.68-.25,9.88-7.86,17.55-17.31,17.44M578.07,808.53c-10.21-.19-17.43-7.44-17.23-17.28.21-10,7.56-16.78,17.83-16.45,10.48.33,17.77,7.52,17.38,17.11-.42,10.03-7.77,16.83-17.98,16.62M628.25,1084.87c-10.39-.79-15.5-6.87-15.6-17.07-.1-10.26,7.04-16.89,17.38-16.59,10.26.3,16.72,7.37,16.26,17.76-.45,10.2-7.67,16.69-18.04,15.9"/>
  <path class="cls-1" d="M1446.9,447.61c-24.55,2.5-41.53,25.02-36.95,49.03,2.56,13.41-14.18,37.73-28.42,38.79-17.58,1.26-35.33.3-54.65.3,3.76-8.34,9.9-12.04,14.18-17.22,4.06-4.88,5.66-10.08.96-15.2-4.94-5.36-11.14-5.36-16.33-.72-8.46,7.52-16.62,15.43-24.24,23.77-6.38,6.92-13.47,11.21-22.89,9.6-31.1-5.42-54.11,6.56-73.29,30.75-.16.19-.34.39-.49.6-5.24-6.9-12.64-12.2-21.33-14.76-18.19-5.36-36.08.76-46.19,17.59-5.05,8.4-11.02,10.79-20.15,10.69-30.47-.39-61.22,2.52-91.31-.79-41.01-4.51-72.12,7.64-96.97,40.63-8.02,10.66-13.52,19.93-13.47,33.6.34,132.42.18,193.51.16,325.93,0,2.61.07,5.23.03,7.83-.18,12.34,5.67,18.69,18.18,18.61,8.7-.03,17.58,1.14,26.08-.17,27.56-4.18,48.48,5.27,65.62,27.08,7.23,9.21,15.14,16.23,10.44,29.49-1.6,4.51-.37,10.45.82,15.43,5.15,21.34,26.39,34.29,48.16,29.79,21.84-4.51,35.62-25.38,31.86-48.27-3.52-21.39-24.84-36.59-47.73-32.01-10.6,2.11-17.23-.63-23.97-7.99-8.82-9.61-18.67-18.3-27.5-27.89-6.44-6.99-13.77-9.76-23.16-9.45-13.91.49-27.86-.21-41.77.24-9.27.3-13.32-2.78-13.31-12.67.21-104.55.18-137.74-.03-242.28-.01-9.49,3.23-13.26,12.91-13.09,23.49.43,47,.4,70.49,0,8.55-.15,14.85,2.71,20.68,8.8,12.32,12.92,24.87,25.63,37.86,37.88,6.71,6.32,9.01,12.17,6.35,21.74-5.12,18.34,6.11,38.73,23.52,45.96,16.89,7.01,34.11,3.29,46.59-10.06,11.95-12.77,14.46-30.51,6.51-46.01-8.17-15.94-24.82-24.31-43.64-22.07-5.82.69-12.1,4.75-17.43-.45-11.11-10.81-21.84-21.99-35.24-35.57,56.98,0,110.03.09,163.07-.09,7.41-.02,10.41,4.49,13.86,9.85,10.58,16.42,28.7,23.36,46.28,18.3,17.82-5.12,29.48-20.23,29.73-38.45.25-18.28-10.81-34.17-27.89-40.02-17.62-6.06-35.66-.48-46.67,16.47-5.4,8.32-11.6,10.21-20.54,10.18-64.39-.21-128.8-.11-193.21-.11-26.11,0-52.24-.42-78.33.16-11.48.27-14.33-4.24-15.2-15.27-1.66-21.48,2.59-39.39,21.17-52.35,4.57-3.17,8.37-7.64,12.02-11.95,5.82-6.86,12.89-9.28,21.84-9.21,41.34.3,82.69.31,124.02-.01,8.74-.06,14.25,2.53,19,10.36,10.24,16.89,28.75,23.63,45.99,18.25,18.03-5.63,30.24-21.71,30.14-39.6,8.1-8.14,16.2-16.27,24.27-24.48,5.72-5.84,12.16-7.52,19.9-7.52,38.73.18,77.52-.6,116.19.42,16.21.42,28.55-4.06,38.85-16.44,8.94-10.67,17.65-18.41,35.23-14.72,22.82,4.88,44.69-18.06,43.79-41.07-.84-22.76-22.58-42.43-44.45-40.21M1076.61,1051.25c10.24.18,16.98,7.2,16.41,17.53-.57,10.29-6.23,15.81-16.53,16.12-10.27.3-17.14-6.63-17.11-16.9.03-10.29,6.87-16.95,17.23-16.75M1127.65,774.8c10.11-.01,17.31,7.14,17.19,17.1-.13,9.78-7.56,16.69-17.85,16.59-10.08-.09-17.29-7.26-17.32-17.22-.04-9.49,7.55-16.44,17.98-16.47M1279.64,686.36c9.94-.17,17.13,6.95,17.16,16.98.03,9.96-7.23,17.85-16.59,18.03-9.24.19-16.92-7.62-17.14-17.44-.24-10.17,6.6-17.41,16.57-17.56M1171.26,609.26c-9.16-.19-17.49-8.88-17.22-17.97.25-9.15,9-17.41,18.09-17.11,9.22.31,17.41,8.88,17.17,17.98-.24,9.12-8.88,17.31-18.04,17.1M1449.58,506.54c-9.06-.18-17.4-8.88-17.28-17.88.18-9.12,8.58-17.52,17.58-17.52,9.66-.06,18.24,8.82,17.82,18.48-.36,9-9.12,17.16-18.12,16.92"/>
  <path class="cls-2" d="M446.34,1209.96h-118.43v45.03h128.28v62.57h-94.16l-60.01,34.67v84.3l60.01,34.64h57.42l36.74-21.2,36.71,21.2h13.44v-226.55l-60.01-34.67ZM456.19,1426.2h-103.98v-63.63h103.98v63.63Z"/>
  <polygon class="cls-2" points="676.02 1209.97 639.28 1231.18 626.88 1209.97 589.12 1209.97 589.12 1468.6 639.28 1468.6 639.28 1254.98 733.44 1254.98 733.44 1209.97 676.02 1209.97"/>
  <polygon class="cls-2" points="877.24 1209.97 840.5 1231.18 828.07 1209.97 790.31 1209.97 790.31 1468.6 840.5 1468.6 840.5 1254.98 934.62 1254.98 934.62 1209.97 877.24 1209.97"/>
  <path class="cls-2" d="M1125.51,1209.96h-118.47v45.03h128.29v62.57h-94.13l-60.04,34.67v84.3l60.04,34.64h57.39l36.74-21.2,36.73,21.2h13.46v-226.55l-60.01-34.67ZM1135.33,1426.2h-103.96v-63.63h103.96v63.63Z"/>
  <path class="cls-2" d="M1434.81,1209.97l-142.74,362.09h49.14l143.79-362.09h-50.18ZM1345.58,1355.87l-58.16-145.9h-50.18l84.04,207.7,24.31-61.8Z"/>
  <path class="cls-1" d="M288.45,1586.82l9.93-49.59h9.66l9.93,49.59h-8.38l-1.96-11.44h-8.64l-2.02,11.44h-8.5ZM299.9,1569.61h6.72l-3.37-20.81-3.35,20.81Z"/>
  <path class="cls-1" d="M363.62,1587.5c-3.67,0-6.53-.67-8.56-2.02-2.05-1.35-3.46-3.26-4.22-5.75-.78-2.5-1.17-5.48-1.17-8.94v-33.57h8.82v34.6c0,1.54.1,3.01.3,4.37.21,1.36.69,2.48,1.45,3.31.75.84,1.87,1.26,3.38,1.26,1.59,0,2.75-.42,3.46-1.26.72-.82,1.18-1.95,1.41-3.31s.34-2.83.34-4.37v-34.6h8.76v33.57c0,3.46-.4,6.44-1.17,8.94-.78,2.49-2.17,4.4-4.19,5.75-2.02,1.35-4.9,2.02-8.61,2.02"/>
  <polygon class="cls-1" points="390.81 1586.82 390.81 1537.24 397.11 1537.24 409.17 1565.52 409.17 1537.24 416.64 1537.24 416.64 1586.82 410.63 1586.82 398.52 1557.2 398.52 1586.82 390.81 1586.82"/>
  <rect class="cls-1" x="430.53" y="1537.23" width="8.94" height="49.59"/>
  <path class="cls-1" d="M477.43,1596.68c-1.02-.48-2.11-1.23-3.26-2.2-1.17-.97-2.32-2.1-3.43-3.34-1.12-1.24-2.1-2.47-2.92-3.7-.16.04-.33.06-.52.06h-.57c-3.52,0-6.3-.66-8.4-1.96-2.07-1.3-3.56-3.19-4.46-5.63-.9-2.46-1.35-5.36-1.35-8.7v-18.55c0-3.35.45-6.21,1.35-8.59.9-2.4,2.4-4.22,4.46-5.49,2.1-1.26,4.88-1.89,8.4-1.89s6.42.63,8.5,1.89c2.08,1.27,3.56,3.1,4.48,5.49.88,2.38,1.35,5.24,1.35,8.59v18.61c0,2.36-.24,4.51-.69,6.42-.43,1.93-1.18,3.59-2.2,5-1,1.41-2.37,2.5-4.03,3.28.52.57,1.08,1.15,1.65,1.77.57.61,1.14,1.18,1.71,1.71.58.54,1.14.97,1.66,1.29l-1.72,5.94ZM466.72,1580.82c1.5,0,2.63-.33,3.35-.97.75-.66,1.23-1.56,1.48-2.71.24-1.14.36-2.38.36-3.73v-22.83c0-1.39-.12-2.64-.36-3.73-.25-1.11-.73-1.98-1.48-2.62-.72-.63-1.86-.94-3.35-.94s-2.58.31-3.31.94c-.73.64-1.23,1.51-1.44,2.62-.22,1.09-.34,2.34-.34,3.73v22.83c0,1.35.12,2.59.34,3.73.21,1.15.7,2.05,1.44,2.71.73.64,1.83.97,3.31.97"/>
  <path class="cls-1" d="M507.49,1587.5c-3.67,0-6.53-.67-8.56-2.02-2.05-1.35-3.46-3.26-4.22-5.75-.78-2.5-1.17-5.48-1.17-8.94v-33.57h8.82v34.6c0,1.54.1,3.01.3,4.37.21,1.36.69,2.48,1.45,3.31.75.84,1.87,1.26,3.38,1.26,1.59,0,2.75-.42,3.46-1.26.72-.82,1.18-1.95,1.41-3.31s.34-2.83.34-4.37v-34.6h8.76v33.57c0,3.46-.4,6.44-1.17,8.94-.78,2.49-2.17,4.4-4.19,5.75-2.02,1.35-4.9,2.02-8.61,2.02"/>
  <polygon class="cls-1" points="534.69 1586.82 534.69 1537.24 555.5 1537.24 555.5 1543.6 543.74 1543.6 543.74 1557.87 552.98 1557.87 552.98 1564.17 543.74 1564.17 543.74 1580.58 555.63 1580.58 555.63 1586.82 534.69 1586.82"/>
  <polygon class="cls-1" points="593.21 1586.82 586.17 1537.24 593.76 1537.24 597.86 1569.38 603 1537.36 609.18 1537.36 614.45 1569.38 618.49 1537.24 625.96 1537.24 619.05 1586.82 611.7 1586.82 606.19 1553.57 600.74 1586.82 593.21 1586.82"/>
  <path class="cls-1" d="M650.7,1587.5c-3.52,0-6.3-.66-8.4-1.96-2.07-1.3-3.56-3.19-4.46-5.63-.9-2.46-1.35-5.36-1.35-8.7v-18.55c0-3.35.45-6.21,1.35-8.59.9-2.4,2.4-4.22,4.46-5.49,2.1-1.26,4.88-1.89,8.4-1.89s6.41.63,8.47,1.89c2.05,1.27,3.55,3.1,4.48,5.49.91,2.38,1.38,5.24,1.38,8.59v18.61c0,3.31-.46,6.17-1.38,8.61-.93,2.43-2.43,4.3-4.48,5.63-2.07,1.32-4.88,1.99-8.47,1.99M650.7,1580.82c1.5,0,2.62-.33,3.32-.97.72-.66,1.2-1.56,1.44-2.71.25-1.14.37-2.38.37-3.73v-22.83c0-1.39-.12-2.64-.37-3.73-.24-1.11-.72-1.98-1.44-2.62-.7-.63-1.83-.94-3.32-.94s-2.52.31-3.25.94c-.73.64-1.23,1.51-1.47,2.62-.24,1.09-.37,2.34-.37,3.73v22.83c0,1.35.12,2.59.34,3.73.21,1.15.7,2.05,1.44,2.71.73.64,1.83.97,3.31.97"/>
  <path class="cls-1" d="M677.81,1586.82v-49.59h11.89c3.34,0,6.15.4,8.47,1.2,2.31.79,4.06,2.16,5.25,4.07,1.21,1.92,1.81,4.54,1.81,7.83,0,2.01-.18,3.8-.54,5.39-.37,1.6-1,2.95-1.87,4.07-.88,1.12-2.1,1.99-3.65,2.61l6.93,24.42h-9.07l-5.99-22.71h-4.18v22.71h-9.06ZM686.87,1558.42h2.83c1.74,0,3.14-.25,4.19-.78,1.03-.49,1.78-1.32,2.23-2.44s.67-2.56.67-4.31c0-2.48-.46-4.36-1.38-5.6-.93-1.24-2.66-1.87-5.24-1.87h-3.31v15Z"/>
  <polygon class="cls-1" points="718.29 1586.82 718.29 1537.24 727.35 1537.24 727.35 1580.58 739.34 1580.58 739.34 1586.82 718.29 1586.82"/>
  <path class="cls-1" d="M750.18,1586.82v-49.59h11.69c4.04,0,7.2.55,9.46,1.65,2.26,1.11,3.88,2.8,4.84,5.09.96,2.28,1.44,5.18,1.44,8.7v18.12c0,3.59-.48,6.57-1.44,8.97-.96,2.38-2.55,4.16-4.78,5.33-2.22,1.15-5.27,1.74-9.16,1.74h-12.05ZM759.24,1580.51h2.77c2.07,0,3.56-.37,4.46-1.09.9-.75,1.45-1.81,1.66-3.22.19-1.41.28-3.13.28-5.17v-18.98c0-2.01-.13-3.61-.42-4.85-.28-1.21-.88-2.11-1.77-2.68-.91-.57-2.37-.85-4.36-.85h-2.63v36.84Z"/>
  <path class="cls-1" d="M824.88,1587.5c-3.52,0-6.3-.66-8.4-1.96-2.07-1.3-3.56-3.19-4.46-5.63-.9-2.46-1.35-5.36-1.35-8.7v-18.55c0-3.35.45-6.21,1.35-8.59.9-2.4,2.4-4.22,4.46-5.49,2.1-1.26,4.88-1.89,8.4-1.89s6.41.63,8.47,1.89c2.05,1.27,3.55,3.1,4.48,5.49.91,2.38,1.38,5.24,1.38,8.59v18.61c0,3.31-.46,6.17-1.38,8.61-.93,2.43-2.43,4.3-4.48,5.63-2.07,1.32-4.88,1.99-8.47,1.99M824.88,1580.82c1.5,0,2.62-.33,3.32-.97.72-.66,1.2-1.56,1.44-2.71.25-1.14.37-2.38.37-3.73v-22.83c0-1.39-.12-2.64-.37-3.73-.24-1.11-.72-1.98-1.44-2.62-.7-.63-1.83-.94-3.32-.94s-2.52.31-3.25.94c-.73.64-1.23,1.51-1.47,2.62-.24,1.09-.37,2.34-.37,3.73v22.83c0,1.35.12,2.59.34,3.73.21,1.15.7,2.05,1.44,2.71.73.64,1.83.97,3.31.97"/>
  <polygon class="cls-1" points="851.99 1586.82 851.99 1537.24 872.37 1537.24 872.37 1543.48 861.05 1543.48 861.05 1557.93 870.29 1557.93 870.29 1564.23 861.05 1564.23 861.05 1586.82 851.99 1586.82"/>
  <path class="cls-1" d="M904.39,1586.82v-49.59h11.69c4.04,0,7.2.55,9.46,1.65,2.26,1.11,3.88,2.8,4.84,5.09.96,2.28,1.44,5.18,1.44,8.7v18.12c0,3.59-.48,6.57-1.44,8.97-.96,2.38-2.55,4.16-4.78,5.33-2.22,1.15-5.27,1.74-9.16,1.74h-12.05ZM913.45,1580.51h2.77c2.07,0,3.56-.37,4.46-1.09.9-.75,1.45-1.81,1.66-3.22.19-1.41.28-3.13.28-5.17v-18.98c0-2.01-.13-3.61-.42-4.85-.28-1.21-.88-2.11-1.77-2.68-.91-.57-2.37-.85-4.36-.85h-2.63v36.84Z"/>
  <polygon class="cls-1" points="944.62 1586.82 944.62 1537.24 965.43 1537.24 965.43 1543.6 953.68 1543.6 953.68 1557.87 962.91 1557.87 962.91 1564.17 953.68 1564.17 953.68 1580.58 965.56 1580.58 965.56 1586.82 944.62 1586.82"/>
  <polygon class="cls-1" points="984.53 1586.82 974.56 1537.24 982.59 1537.24 989.13 1572.32 995.25 1537.24 1003.44 1537.24 993.47 1586.82 984.53 1586.82"/>
  <polygon class="cls-1" points="1014.67 1586.82 1014.67 1537.24 1035.48 1537.24 1035.48 1543.6 1023.72 1543.6 1023.72 1557.87 1032.98 1557.87 1032.98 1564.17 1023.72 1564.17 1023.72 1580.58 1035.61 1580.58 1035.61 1586.82 1014.67 1586.82"/>
  <polygon class="cls-1" points="1046.99 1586.82 1046.99 1537.24 1056.05 1537.24 1056.05 1580.58 1068.05 1580.58 1068.05 1586.82 1046.99 1586.82"/>
  <path class="cls-1" d="M1091.97,1587.5c-3.52,0-6.3-.66-8.38-1.96-2.08-1.3-3.58-3.19-4.46-5.63-.9-2.46-1.35-5.36-1.35-8.7v-18.55c0-3.35.45-6.21,1.35-8.59.88-2.4,2.38-4.22,4.46-5.49,2.08-1.26,4.87-1.89,8.38-1.89s6.44.63,8.49,1.89c2.05,1.27,3.55,3.1,4.46,5.49.91,2.38,1.38,5.24,1.38,8.59v18.61c0,3.31-.46,6.17-1.38,8.61-.91,2.43-2.41,4.3-4.46,5.63-2.05,1.32-4.9,1.99-8.49,1.99M1091.97,1580.82c1.53,0,2.63-.33,3.35-.97.69-.66,1.18-1.56,1.44-2.71.24-1.14.36-2.38.36-3.73v-22.83c0-1.39-.12-2.64-.36-3.73-.25-1.11-.75-1.98-1.44-2.62-.72-.63-1.83-.94-3.35-.94-1.42,0-2.5.31-3.25.94-.72.64-1.21,1.51-1.45,2.62-.25,1.09-.37,2.34-.37,3.73v22.83c0,1.35.1,2.59.33,3.73.22,1.15.72,2.05,1.44,2.71.73.64,1.86.97,3.31.97"/>
  <path class="cls-1" d="M1119.11,1586.82v-49.59h14.57c2.98,0,5.4.55,7.25,1.65,1.86,1.11,3.23,2.71,4.12,4.82.85,2.1,1.32,4.64,1.32,7.62,0,3.22-.55,5.82-1.68,7.8-1.08,1.98-2.62,3.41-4.61,4.33-1.98.88-4.33,1.33-7.01,1.33h-4.9v22.04h-9.06ZM1128.17,1558.42h3.43c1.63,0,2.9-.24,3.82-.7.91-.46,1.54-1.23,1.9-2.26.34-1.05.51-2.44.51-4.19s-.12-3.26-.39-4.39c-.27-1.12-.84-1.95-1.71-2.48-.88-.52-2.26-.79-4.13-.79h-3.43v14.82Z"/>
  <polygon class="cls-1" points="1157.49 1586.82 1157.49 1537.24 1178.3 1537.24 1178.3 1543.6 1166.55 1543.6 1166.55 1557.87 1175.8 1557.87 1175.8 1564.17 1166.55 1564.17 1166.55 1580.58 1178.44 1580.58 1178.44 1586.82 1157.49 1586.82"/>
  <path class="cls-1" d="M1189.82,1586.82v-49.59h11.87c3.35,0,6.17.4,8.46,1.2,2.34.79,4.07,2.16,5.28,4.07,1.2,1.92,1.81,4.54,1.81,7.83,0,2.01-.18,3.8-.55,5.39-.37,1.6-.99,2.95-1.87,4.07s-2.1,1.99-3.64,2.61l6.9,24.42h-9.06l-6-22.71h-4.15v22.71h-9.06ZM1198.87,1558.42h2.81c1.75,0,3.14-.25,4.19-.78,1.05-.49,1.78-1.32,2.25-2.44.42-1.12.66-2.56.66-4.31,0-2.48-.46-4.36-1.38-5.6-.91-1.24-2.65-1.87-5.23-1.87h-3.31v15Z"/>
  <path class="cls-1" d="M1242.78,1587.5c-2.98,0-5.48-.58-7.49-1.75-1.99-1.17-3.5-2.86-4.51-5.11-1.03-2.25-1.62-5-1.74-8.26l7.79-1.53c.09,1.9.31,3.61.7,5.08.39,1.47.99,2.6,1.77,3.4.81.79,1.86,1.18,3.16,1.18,1.47,0,2.52-.42,3.13-1.3.6-.88.9-2.01.9-3.34,0-2.17-.49-3.94-1.45-5.33-.99-1.39-2.28-2.77-3.92-4.16l-6.24-5.51c-1.75-1.51-3.14-3.19-4.19-5.05s-1.57-4.15-1.57-6.9c0-3.91,1.15-6.93,3.44-9.06,2.28-2.11,5.39-3.17,9.36-3.17,2.32,0,4.25.34,5.82,1.06,1.54.72,2.77,1.71,3.7,2.98.93,1.26,1.6,2.69,2.05,4.31.45,1.62.73,3.32.87,5.12l-7.73,1.35c-.09-1.56-.25-2.95-.52-4.18-.27-1.23-.73-2.19-1.41-2.87-.66-.69-1.68-1.05-2.96-1.05-1.36,0-2.38.45-3.1,1.32-.7.88-1.08,1.98-1.08,3.28,0,1.68.36,3.05,1.05,4.13.7,1.08,1.69,2.2,3.01,3.34l6.18,5.45c2.04,1.71,3.77,3.73,5.24,6.03,1.44,2.31,2.16,5.09,2.16,8.35,0,2.37-.51,4.48-1.56,6.3-1.03,1.84-2.49,3.28-4.34,4.33-1.87,1.03-4.03,1.56-6.51,1.56"/>
  <polygon class="cls-2" points="247.87 1590.11 31.54 1430.78 31.54 1375.33 247.87 1210.54 247.87 1269.9 76.05 1402.67 247.87 1531.54 247.87 1590.11"/>
  <polygon class="cls-2" points="1513.83 1590.11 1730.17 1430.78 1730.17 1375.33 1513.83 1210.54 1513.83 1269.9 1685.66 1402.67 1513.83 1531.54 1513.83 1590.11"/>
</svg>