<svg version="1.2" xmlns="http://www.w3.org/2000/svg" viewBox="0 0 1279 1124" width="1279" height="1124">
	<title>Artboard ٣-svg</title>
	<style>
		.s0 { fill: #002640 } 
		.s1 { fill: #6f8f9f } 
	</style>
	<path id="Layer" fill-rule="evenodd" class="s0" d="m631.4 1034c17.1 11.1 22.9 30.5 15.7 49.2-6.6 17.3-25 27.9-44.1 25.5-18.1-2.3-33.4-17.7-35.1-36.8-1.7-17.2 5.6-30.7 20.5-39.3 7-4.1 9.4-9 9.4-16.8-0.1-152.5-0.1-233.6 0.1-386.1 0-7.5-2.2-13.3-7.5-18.6-27.6-27.3-55.1-54.6-82.1-82.4-6.9-7.1-13.7-6.6-22.4-5.3-22.3 3.5-41.5-9.7-46.3-30.6-0.5-2.4-0.8-4.8-1-7.1h-80.5c-1.3 0.2-2.6-0.1-3.6-1.1-19.8-18.9-62.4-58-74.2-70-5.7-5.8-12.2-7.5-19.9-7.5-38.8 0.2-77.5-0.6-116.2 0.5-16.2 0.4-28.6-4.1-38.9-16.5-8.9-10.6-17.6-18.4-35.2-14.7-22.8 4.9-44.7-18.1-43.8-41.1 0.9-22.7 22.6-42.4 44.5-40.2 24.5 2.5 41.5 25.1 36.9 49.1-2.5 13.4 14.2 37.7 28.4 38.8 17.6 1.2 35.4 0.3 54.7 0.3-3.8-8.4-9.9-12.1-14.2-17.3-4.1-4.9-5.7-10-1-15.2 5-5.3 11.2-5.3 16.4-0.7 8.4 7.5 16.6 15.5 24.2 23.8 6.4 6.9 13.5 11.2 22.9 9.6 31.1-5.4 57.2 6.1 76.4 30.3 2.7 3.4 43 42.8 46.1 46.1h84.2c5.2-7.4 12.9-13.1 22.6-15.9 19.4-5.9 40.8 4.9 49.1 24.6 3.5 8.4 3.6 17 1.4 25.7-1.7 6.3-1.3 11.8 3.7 16.7 23.1 22.5 46.1 45 69.1 67.6 0.9 0.8 2.2 1.2 5.9 3.3 0-28.5 0-54.9-0.1-81.4 0-5.2-3.7-8.6-7.1-12-25-24.9-50-49.8-74.7-74.9-5.8-5.9-12.1-7.6-19.9-7.5-38.8 0.1-77.5-0.6-116.2 0.3-16.2 0.4-28.5-4-38.9-16.4-8.9-10.6-17.6-18.4-35.2-14.7-22.8 4.8-44.6-18.1-43.8-41 0.8-22.9 22.6-42.5 44.4-40.3 24.6 2.5 41.6 25.1 37.1 49.1-2.6 13.3 14.1 37.7 28.3 38.7 17.6 1.3 35.4 0.3 54.7 0.3-3.8-8.3-9.9-12-14.2-17.2-4-4.9-5.7-10.1-0.9-15.2 4.9-5.3 11.1-5.3 16.3-0.7 8.4 7.5 16.6 15.4 24.2 23.8 6.4 6.9 13.5 11.2 22.9 9.5 31.1-5.3 54.1 6.6 73.3 30.8 11.5 14.6 26.1 26.8 39.4 39.9 2.3 2.3 4.3 6.5 8.4 4.7 3.3-1.4 2.2-5.3 2.2-8.3 0.1-24.3-0.1-48.8 0.2-73.1 0-7.9-4.2-12.9-9.2-18-33.5-34.2-66.9-68.4-100.4-102.7q-2.3-2.3-4.5-4.7c-4.4-4.5-8.9-9-13.4-13.5-5.7-5.8-12.1-7.5-19.9-7.5-38.7 0.2-77.5-0.6-116.2 0.4-16.2 0.4-28.5-4-38.8-16.4-8.9-10.7-17.6-18.4-35.2-14.7-22.8 4.9-44.7-18.1-43.8-41.1 0.8-22.8 22.6-42.4 44.4-40.2 24.6 2.5 41.6 25 37 49-2.6 13.4 14.2 37.7 28.4 38.8 17.6 1.3 35.3 0.3 54.6 0.3-3.7-8.3-9.9-12-14.1-17.2-4.1-4.9-5.7-10.1-1-15.2 4.9-5.4 11.1-5.4 16.3-0.7 8.5 7.5 16.6 15.4 24.3 23.7 6.4 7 13.4 11.2 22.9 9.6 31.1-5.4 54.1 6.6 73.3 30.8 1.7 2.1 3.5 4.2 5.3 6.3 16.4 16.3 32.6 32.8 48.9 49.2 3.1 3.1 6.2 6.2 9.4 9.4 6 6.1 12.1 12.2 18.1 18.2 3.3 3.4 6.9 6.5 12.8 12.1 0-23 0.2-43-0.2-63.1-0.1-3.5-3.5-5.1-6.6-6.7q-0.9-0.4-1.7-0.9c-8.1-5.1-14-11.7-17.3-19.1-3.9-8.4-4.6-18-1.8-27.8 2.6-9.1 8.3-16.9 15.8-22.2 0.1-0.5 0.2-1.1 0.4-1.7 2.8-14-15.9-36.7-29.5-37.9-24.4-2.2-41.4-24.7-37.1-49 3.9-21.6 28.8-37.2 50.9-31.7 22.3 5.4 38.4 32.8 27.5 53.3-8.4 15.9-3.4 26.4 4.4 37.9 4.9 7 7.4 14 7.9 21.3 12.2 0.3 23.9 6.7 31.4 16.6 6.8-3 10.8-8.9 13.5-16.5 3.9-10.6 8.3-21 13.2-31.2 3-6.3 8.7-8.7 15.4-5.7 6.3 2.9 6.8 8.3 5 14.4-2 6.4-6.2 12.2-6.5 21.3 17.8-7.4 34.6-13.4 50.3-21.3 12.7-6.5 18.8-35.4 11.2-46.8-13.5-20.4-6.5-47.7 15.2-59.5 19.3-10.5 46.9-0.8 56.5 19.9 9.7 20.9-1.6 50.5-24.5 54.8-17.7 3.4-22.7 13.9-26.8 27.2-4.7 15.4-14.4 24.3-29.5 30.2-28.4 11-56.5 23.1-84.6 35 1.3 15.3-6 29.3-20.7 38.5-4.1 2.5-8.9 4.4-8.9 10.1-0.1 37.4-0.1 74.7-0.1 114 10-5.2 16.4-12 21.4-19 26.8-37.2 62.3-51.3 107.2-44.2 8.5 1.4 17.4-0.1 26.1 0.3 8.5 0.4 14.9-2.5 20.9-8.5 5.9-5.8 7.8-10.9 5.3-19.4-5.7-19.7 5.6-40.5 24.4-47.9 13-5.1 26.9-3.5 37.6 3.6 6.6-0.7 13.6-0.4 21.1 0.9 9.4 1.6 16.5-2.7 22.9-9.6 7.6-8.3 15.8-16.2 24.2-23.7 5.2-4.7 11.4-4.7 16.4 0.7 4.7 5.1 3.1 10.3-1 15.2-4.3 5.2-10.4 8.9-14.2 17.2 19.3 0 37.1 1 54.7-0.3 14.2-1.1 30.9-25.4 28.4-38.8-4.6-24 12.4-46.5 36.9-49 21.9-2.2 43.6 17.4 44.5 40.2 0.9 23-21 45.9-43.8 41.1-17.6-3.7-26.3 4-35.2 14.7-10.3 12.4-22.7 16.8-38.9 16.4-32.9-0.8-66-0.4-99-0.4 3.7 15.3-1.3 31.7-13.7 41.8-10.6 8.6-22.8 10.2-35.7 7.4-6.4-1.4-12.2-1.8-16.6 3.7-10.8 13.2-23.3 22.2-42.2 17.9l-1 3c9.4 9.7 19.1 19.2 28.4 29.2 7.8 8.3 5.9 18.2-3.5 20.5-5.9 1.5-9.8-2-13.7-5.7-12.9-13-25.7-26-38.8-38.8-11.6-11.4-43.4-11.5-55 0-20.4 20.2-40.7 40.6-60.9 60.9-3.5 3.4-7.1 6.9-7.1 12.1-0.1 29.1 0 58.2 0 91.7 13.9-13.9 25.6-24.6 36.1-36.3 9.2-10.3 19.6-14.1 33.3-14 60.1 0.6 120.1 0.1 180.2 0.4 10.4 0.1 18.2-2.9 25.3-10.6 10.3-11.2 21.1-22 32.3-32.3 7.2-6.7 10.2-13.2 8.3-23.9-4.2-25 9.8-44.3 32.7-48.1 21.7-3.6 42 10.2 47 31.9 6.2 26.9-17.7 53.2-45.7 48.4-12.5-2.1-20.7 1.2-28.7 9.9-6.7 7.2-14.7 13.3-22.3 20 6.1 6.3 11.2 4.5 15.6 4.5 29.6 0.1 59.2 0 88.8 0.1 4.3 0 8.7 0 13 0.9 5.7 1.1 9.1 5 9.1 11.1 0 6-3.5 9.9-9.3 11-4.6 0.8-9.5 0.8-14.3 0.8h-214.2c4.5 10.7 12.9 15.7 19.1 22.5 5.5 6.2 11.2 12.7 4 20.4-7.9 8.4-15.2 2.2-21.2-3.8-10.1-10.2-19.9-20.7-29.6-31.3-5-5.6-10.8-8-18.4-7.9-23.5 0.2-47 0.1-70.5 0.1-5.8 0-11.1 0.7-15.6 5.1-16.2 15.8-33.5 30.4-48.2 47.8-4.9 5.6-7.1 11.4-7.1 18.8 0.1 174.3 0.2 277.2 0 451.5 0 9.5 4.7 13.6 11.7 18.2m325.9-639.6c0 9.3 7.9 16.8 17.8 16.8 10 0.2 17.2-6.9 17.2-16.8 0.1-10-7.1-17.1-17.2-17-9.3 0.2-17.8 7.8-17.8 17zm80.4-190.2c-0.2 9 8.2 17.7 17.2 17.9 9 0.2 17.8-8 18.1-17 0.5-9.6-8.1-18.5-17.8-18.4-9 0-17.4 8.4-17.5 17.5zm-214.6 80.2c-0.1 5 1.9 9.6 5 13 3.4 3.6 7.9 5.8 12.7 5.5 8.8-0.4 17.4-9.3 17.2-18-0.1-3.3-1.1-6.4-2.8-9-3.3-5.2-9.2-8.6-16-8.1-10.4 0.6-15.7 6.5-16.1 16.6zm-62.3-185c3.4 8.4 14.5 13.2 22.9 9.8 8.4-3.2 13.3-14.1 10.2-22.6-3.4-9-14.7-13.9-23.6-10.1-8.3 3.5-12.8 14.5-9.5 22.9zm-195.6-4c-9.1-3.1-20.1 2.7-22.6 12-2.5 8.6 3.3 19.1 12 21.7 8.6 2.6 19.3-3 22-11.7 2.6-8.6-2.8-19.2-11.4-22zm-289.7 63.6c-0.1-9.1-8.5-17.5-17.5-17.5-9.7-0.1-18.3 8.8-17.9 18.4 0.4 9 9.2 17.2 18.2 17 9-0.2 17.4-8.9 17.2-17.9zm45.2 176.1c-0.2-9.1-8.6-17.5-17.6-17.5-9.7 0-18.2 8.8-17.8 18.5 0.3 8.9 9.1 17.2 18.2 16.9 9-0.2 17.4-8.9 17.2-17.9zm-235.4 1.1c-0.2-9.1-8.6-17.5-17.6-17.5-9.6 0-18.2 8.8-17.8 18.5 0.4 9 9.1 17.2 18.1 16.9 9.1-0.2 17.4-8.9 17.3-17.9zm411 147.1c0-10.4-7-17.2-17.4-16.9-10.2 0.2-16.8 7.2-16.4 17.7 0.4 10.6 6.1 15.9 16.5 16.1 10.5 0.2 17.4-6.6 17.3-16.9zm112.5-239.7c9-0.1 17.3-8.4 17.6-17.5 0.2-9-8.1-17.7-17.1-18-1-0.1-2.1 0.1-3.1 0.2-8.3 1.5-15.3 9.6-15 18 0.1 4.7 2.5 9.2 5.9 12.4 3.2 3 7.5 4.9 11.7 4.9zm17.6 824.6c0-9.7-7.3-16.7-17.6-17-10.2-0.2-17.6 6.8-17.6 16.7-0.2 9.7 7.3 17 17.4 17 10.3 0 17.7-7 17.8-16.7z"/>
	<path id="Layer" fill-rule="evenodd" class="s0" d="m500.5 588.5c10.2 13.4 23.5 24.4 35.8 36.2 6.7 6.4 9.9 13.7 9.9 23.1-0.1 136.8 0 202.2-0.1 339 0 15.1-4.5 19.5-19.5 19.7-16.6 0.3-33.1 0.5-49.6 0-9.5-0.3-16.9 2.6-23 9.8-4.3 4.9-8.9 9.5-13.8 13.8-10.9 9.5-17.4 18.8-14.6 35.7 4 23.6-16.1 43-39.9 43.1-23.5 0.1-41.3-17.9-41-41.5 0.3-24 19.5-43.3 43.4-39.6 15.9 2.5 26.1-2.3 34.4-13.9 18.8-26.2 43.6-34.9 75.5-31.7 26.5 2.6 24.3 2.8 24.4-24.3 0-98.9 0-126.5 0-225.4 0-17.5-0.1-17.5-17.3-17.6-21.7 0-43.5 0.3-65.2-0.1-9-0.2-15.7 2.7-21.9 9.2-12.5 13.3-25.6 26.1-38.7 38.8-5.5 5.3-7.7 10.4-5.7 18.4 4.7 19.2-3.3 37.4-18.8 46-16.5 9.2-35.9 6.5-49.3-6.7-13.3-13.2-16.2-31.9-7.5-48 9-16.6 27.5-25.5 46.6-20.4 8.7 2.3 13.5-0.1 19.3-5.8 9.5-9.2 20-17.5 30.1-26.3-6.2-6.2-9.9-5-13.2-5-48.7-0.1-97.4 0-146.2-0.2-8.1 0-13.4 2-17.8 9.7-9.4 16.6-28.3 23.5-46.1 18.6-17.2-4.8-29-19.6-29.6-37.2-0.7-18.5 9.8-34.5 26.7-40.8 17.6-6.5 35.9-1.3 47.1 15.2 5.6 8.3 11.7 11.3 21.4 11.1 32.6-0.4 65.3-0.1 97.9-0.2 3.3 0 7.8 1.5 9.5-2.2 1.9-3.9-2.6-5.9-4.9-8.2-10-10.3-20.3-20.3-30.3-30.6-5.4-5.4-8.5-12.3-2.8-18.5 6.3-7 13.6-3.9 19.4 1.8 16.2 15.8 32.4 31.7 48.1 47.9 6.5 6.8 13.4 10.1 22.9 10 37-0.4 74-0.6 111 0 12.3 0.2 14.7-4.7 15.8-16.1 1.9-21.2-4-37.5-20.8-51.4-15-12.4-28.1-27.2-41.6-41.4-6.2-6.5-13.1-9-22-9-56.1 0.3-112.3 0-168.4 0.3-10.4 0.1-18.3-2.7-25.4-10.4-10-10.9-21.1-20.8-31.1-31.7-7.1-7.7-14.1-10.9-25.2-8.4-16.7 3.7-31-2.5-40.5-17.2-9.2-14-9.8-29-1.4-43.3 8.4-14.3 21.7-21.1 38.3-20.1 24.4 1.4 41.4 23.4 36.8 48.8-1.8 9.4 1.5 14.9 6.7 22 22.2 30.2 50.7 42.5 87.8 36.8 13.2-2 26.8-0.4 41.8-0.4-2.7-8.1-7.8-11.1-11.6-15.1-5.3-5.8-8.5-11.8-1.9-18.2 6.5-6.2 12.8-3 18.3 2.4 6.8 6.7 14 13.1 20.3 20.3 6.8 7.8 14.7 12.4 25.1 10.6 39.1-6.9 68.7 7.5 92.4 38.6m-319.5-88.3c10.4 0.5 17.5-6.1 17.7-16.4 0.2-10.5-6.5-17.4-16.8-17.4-10.3-0.1-17.3 6.7-17 17.1 0.3 10.3 5.7 16.1 16.1 16.7zm17.7 203.8c0.3-10.3-6.6-17.5-16.6-17.7-10-0.2-17.2 7-17.2 17.1 0 10.5 6.8 17.9 16.5 18 9.4 0.1 17-7.5 17.3-17.4zm153.4 87.9c0.4-9.6-6.9-16.8-17.4-17.1-10.3-0.3-17.6 6.4-17.8 16.4-0.2 9.9 7 17.1 17.2 17.3 10.2 0.2 17.5-6.6 18-16.6zm50.2 277.1c0.5-10.4-6-17.5-16.3-17.8-10.3-0.3-17.4 6.3-17.3 16.6 0.1 10.2 5.2 16.3 15.6 17.1 10.3 0.8 17.5-5.7 18-15.9z"/>
	<path id="Layer" fill-rule="evenodd" class="s0" d="m1202.9 447.6c21.9-2.3 43.6 17.4 44.4 40.2 0.9 23-20.9 45.9-43.7 41-17.6-3.7-26.3 4.1-35.3 14.8-10.3 12.3-22.6 16.8-38.8 16.4-38.7-1-77.5-0.2-116.2-0.4-7.8 0-14.2 1.7-19.9 7.5-8.1 8.2-16.2 16.3-24.3 24.5 0.1 17.9-12.1 33.9-30.1 39.6-17.3 5.4-35.8-1.4-46-18.3-4.8-7.8-10.3-10.4-19-10.3q-62 0.4-124 0c-9-0.1-16.1 2.3-21.9 9.2-3.6 4.3-7.4 8.8-12 11.9-18.6 13-22.8 30.9-21.2 52.4 0.9 11 3.8 15.5 15.2 15.3 26.1-0.6 52.3-0.2 78.4-0.2 64.4 0 128.8-0.1 193.2 0.1 8.9 0 15.1-1.8 20.5-10.2 11-16.9 29.1-22.5 46.7-16.4 17.1 5.8 28.1 21.7 27.9 40-0.3 18.2-11.9 33.3-29.8 38.4-17.5 5.1-35.7-1.8-46.2-18.3-3.5-5.3-6.5-9.8-13.9-9.8-53 0.2-106.1 0.1-163.1 0.1 13.4 13.6 24.2 24.7 35.3 35.5 5.3 5.2 11.6 1.2 17.4 0.5 18.8-2.2 35.5 6.1 43.6 22.1 8 15.5 5.5 33.2-6.5 46-12.4 13.3-29.7 17-46.6 10-17.4-7.2-28.6-27.6-23.5-45.9 2.7-9.6 0.4-15.4-6.3-21.8-13-12.2-25.6-24.9-37.9-37.8-5.8-6.1-12.1-9-20.7-8.8-23.5 0.4-47 0.4-70.5 0-9.6-0.2-12.9 3.6-12.9 13 0.2 104.6 0.3 137.8 0.1 242.3 0 9.9 4 13 13.3 12.7 13.9-0.5 27.8 0.2 41.7-0.2 9.4-0.4 16.8 2.4 23.2 9.4 8.8 9.6 18.7 18.3 27.5 27.9 6.7 7.4 13.4 10.1 24 8 22.9-4.6 44.2 10.6 47.7 32 3.8 22.9-10 43.8-31.9 48.3-21.7 4.5-43-8.5-48.1-29.8-1.2-5-2.4-10.9-0.8-15.5 4.7-13.2-3.2-20.2-10.5-29.4-17.1-21.9-38-31.3-65.6-27.1-8.5 1.3-17.4 0.1-26.1 0.1-12.5 0.1-18.3-6.2-18.2-18.6 0.1-2.6 0-5.2 0-7.8 0-132.4 0.2-193.5-0.1-325.9-0.1-13.7 5.4-23 13.4-33.6 24.9-33 56-45.2 97-40.7 30.1 3.3 60.8 0.4 91.3 0.8 9.1 0.1 15.1-2.3 20.2-10.7 10.1-16.8 28-22.9 46.1-17.6 8.7 2.6 16.1 7.9 21.4 14.8q0.2-0.3 0.5-0.6c19.1-24.2 42.2-36.2 73.3-30.7 9.4 1.6 16.5-2.7 22.8-9.6 7.7-8.4 15.8-16.3 24.3-23.8 5.2-4.7 11.4-4.7 16.3 0.7 4.7 5.1 3.1 10.3-0.9 15.2-4.3 5.2-10.5 8.9-14.2 17.2 19.3 0 37 1 54.6-0.3 14.3-1 31-25.4 28.4-38.8-4.5-24 12.5-46.5 37-49m-387.5 620.4c-0.1 10.3 6.8 17.2 17.1 16.9 10.3-0.3 15.9-5.8 16.5-16.1 0.6-10.3-6.2-17.4-16.4-17.6-10.4-0.2-17.2 6.5-17.2 16.8zm50.3-276.7c0 9.9 7.2 17.1 17.3 17.2 10.3 0.1 17.7-6.8 17.8-16.6 0.2-10-7-17.1-17.2-17.1-10.4 0-18 7-17.9 16.5zm153.4-87.4c0.2 9.8 7.9 17.7 17.1 17.5 9.4-0.2 16.6-8.1 16.6-18.1 0-10-7.2-17.1-17.2-16.9-9.9 0.1-16.8 7.4-16.5 17.5zm-73.8-111.7c0.2-9.1-8-17.7-17.2-18-9.1-0.3-17.8 7.9-18.1 17.1-0.2 9.1 8.1 17.8 17.3 18 9.1 0.2 17.8-8 18-17.1zm278.4-102.6c0.4-9.6-8.2-18.5-17.8-18.5-9 0-17.4 8.4-17.6 17.6-0.1 9 8.2 17.7 17.3 17.8 9 0.3 17.7-7.9 18.1-16.9z"/>
	<path id="Layer" fill-rule="evenodd" class="s1" d="m202.3 1210l60 34.6v226.6h-13.4l-36.7-21.2-36.7 21.2h-57.5l-60-34.7v-84.3l60-34.6h94.2v-62.6h-128.3v-45h118.4zm9.9 152.6h-104v63.6h104z"/>
	<path id="Layer" class="s1" d="m432 1210l-36.7 21.2-12.4-21.2h-37.8v258.6h50.2v-213.6h94.1v-45h-57.4z"/>
	<path id="Layer" class="s1" d="m633.2 1210l-36.7 21.2-12.4-21.2h-37.8v258.6h50.2v-213.6h94.1v-45h-57.4z"/>
	<path id="Layer" fill-rule="evenodd" class="s1" d="m941.5 1244.6v226.6h-13.4l-36.8-21.2-36.7 21.2h-57.4l-60-34.7v-84.3l60-34.6h94.1v-62.6h-128.3v-45h118.5c0 0 60 34.6 60 34.6zm-50.2 118h-103.9v63.6h103.9z"/>
	<path id="Layer" class="s1" d="m1190.8 1210l-142.7 362.1h49.1l143.8-362.1c0 0-50.2 0-50.2 0zm-89.2 145.9l-58.2-145.9h-50.2l84.1 207.7c0 0 24.3-61.8 24.3-61.8z"/>
	<path id="Layer" fill-rule="evenodd" class="s0" d="m44.5 1586.8l9.9-49.6h9.6l10 49.6h-8.4l-2-11.4h-8.6l-2 11.4zm11.4-17.2h6.7l-3.3-20.8z"/>
	<path id="Layer" class="s0" d="m119.6 1587.5q-5.5 0-8.5-2-3.1-2-4.3-5.8-1.1-3.7-1.1-8.9v-33.6h8.8v34.6q0 2.3 0.3 4.4 0.3 2 1.4 3.3 1.2 1.3 3.4 1.3 2.4 0 3.5-1.3c0.7-0.8 1.2-2 1.4-3.3q0.3-2.1 0.3-4.4v-34.6h8.8v33.6q0 5.2-1.2 8.9-1.1 3.8-4.2 5.8-3 2-8.6 2z"/>
	<path id="Layer" class="s0" d="m146.8 1586.8v-49.6h6.3l12.1 28.3v-28.3h7.4v49.6h-6l-12.1-29.6v29.6h-7.7z"/>
	<path id="Layer" class="s0" d="m186.5 1537.2h9v49.6h-9z"/>
	<path id="Layer" fill-rule="evenodd" class="s0" d="m233.4 1596.7q-1.5-0.8-3.2-2.2-1.8-1.5-3.5-3.4-1.6-1.8-2.9-3.7-0.2 0.1-0.5 0.1h-0.6c-3.5 0-6.3-0.7-8.4-2q-3.1-1.9-4.4-5.6-1.4-3.7-1.4-8.7v-18.5q0-5.1 1.4-8.6 1.3-3.6 4.4-5.5 3.2-1.9 8.4-1.9c3.5 0 6.5 0.6 8.5 1.9q3.1 1.9 4.5 5.5 1.3 3.5 1.4 8.6v18.6q0 3.5-0.7 6.4-0.7 2.9-2.2 5c-1 1.4-2.4 2.5-4.1 3.3q0.8 0.8 1.7 1.7 0.8 1 1.7 1.7 0.9 0.9 1.7 1.3l-1.8 6zm-10.7-15.9q2.3 0 3.4-1 1.1-0.9 1.5-2.7 0.3-1.7 0.3-3.7v-22.8q0-2.1-0.3-3.8-0.4-1.6-1.5-2.6c-0.7-0.6-1.9-0.9-3.4-0.9q-2.2 0-3.3 0.9-1.1 1-1.4 2.6-0.4 1.7-0.4 3.8v22.8q0 2 0.4 3.7 0.3 1.8 1.4 2.7 1.1 1 3.3 1z"/>
	<path id="Layer" class="s0" d="m263.5 1587.5q-5.5 0-8.6-2-3-2-4.2-5.8-1.2-3.7-1.2-8.9v-33.6h8.9v34.6q0 2.3 0.3 4.4 0.3 2 1.4 3.3 1.1 1.3 3.4 1.3 2.4 0 3.4-1.3c0.8-0.8 1.2-2 1.5-3.3q0.3-2.1 0.3-4.4v-34.6h8.8v33.6q0 5.2-1.2 8.9-1.2 3.8-4.2 5.8-3 2-8.6 2z"/>
	<path id="Layer" class="s0" d="m290.7 1586.8v-49.6h20.8v6.4h-11.8v14.3h9.3v6.3h-9.3v16.4h11.9v6.2h-20.9z"/>
	<path id="Layer" class="s0" d="m349.2 1586.8l-7-49.6h7.6l4.1 32.2 5.1-32h6.2l5.3 32 4-32.2h7.5l-7 49.6h-7.3l-5.5-33.2-5.5 33.2h-7.5z"/>
	<path id="Layer" fill-rule="evenodd" class="s0" d="m406.7 1587.5c-3.5 0-6.3-0.7-8.4-2q-3.1-1.9-4.5-5.6-1.3-3.7-1.3-8.7v-18.5q0-5.1 1.3-8.6 1.4-3.6 4.5-5.5 3.1-1.9 8.4-1.9c3.5 0 6.4 0.6 8.5 1.9q3.1 1.9 4.5 5.5 1.3 3.5 1.3 8.6v18.6q0 4.9-1.3 8.6-1.4 3.6-4.5 5.6-3.1 2-8.5 2zm0-6.7q2.3 0 3.3-1 1.1-0.9 1.5-2.7 0.3-1.7 0.3-3.7v-22.8q0-2.1-0.3-3.8-0.4-1.6-1.5-2.6c-0.7-0.6-1.8-0.9-3.3-0.9-1.5 0-2.5 0.3-3.2 0.9q-1.2 1-1.5 2.6-0.4 1.7-0.4 3.8v22.8q0 2 0.4 3.7 0.3 1.8 1.4 2.7 1.1 1 3.3 1z"/>
	<path id="Layer" fill-rule="evenodd" class="s0" d="m433.8 1586.8v-49.6h11.9q5 0 8.5 1.2 3.4 1.2 5.2 4.1 1.8 2.9 1.8 7.8 0 3-0.5 5.4-0.6 2.4-1.9 4.1-1.3 1.7-3.6 2.6l6.9 24.4h-9.1l-6-22.7h-4.1v22.7c0 0-9.1 0-9.1 0zm9.1-28.4h2.8q2.6 0 4.2-0.8 1.5-0.7 2.2-2.4 0.7-1.7 0.7-4.3 0-3.7-1.4-5.6-1.4-1.9-5.2-1.9h-3.3c0 0 0 15 0 15z"/>
	<path id="Layer" class="s0" d="m474.3 1586.8v-49.6h9.1v43.4h11.9v6.2h-21z"/>
	<path id="Layer" fill-rule="evenodd" class="s0" d="m506.2 1586.8v-49.6h11.7q6 0 9.4 1.7 3.4 1.6 4.9 5.1 1.4 3.4 1.4 8.7v18.1q0 5.4-1.4 9-1.5 3.5-4.8 5.3-3.3 1.7-9.2 1.7c0 0-12 0-12 0zm9-6.3h2.8q3.1 0 4.5-1.1 1.3-1.1 1.6-3.2 0.3-2.1 0.3-5.2v-18.9q0-3.1-0.4-4.9-0.4-1.8-1.8-2.7-1.3-0.8-4.3-0.8h-2.7c0 0 0 36.8 0 36.8z"/>
	<path id="Layer" fill-rule="evenodd" class="s0" d="m580.9 1587.5c-3.5 0-6.3-0.7-8.4-2q-3.1-1.9-4.5-5.6-1.3-3.7-1.3-8.7v-18.5q0-5.1 1.3-8.6 1.4-3.6 4.5-5.5 3.1-1.9 8.4-1.9c3.5 0 6.4 0.6 8.5 1.9q3 1.9 4.4 5.5 1.4 3.5 1.4 8.6v18.6q0 4.9-1.4 8.6-1.4 3.6-4.4 5.6-3.1 2-8.5 2zm0-6.7q2.2 0 3.3-1 1.1-0.9 1.4-2.7 0.4-1.7 0.4-3.7v-22.8q0-2.1-0.4-3.8-0.3-1.6-1.4-2.6c-0.7-0.6-1.8-0.9-3.3-0.9-1.5 0-2.5 0.3-3.3 0.9q-1.1 1-1.4 2.6-0.4 1.7-0.4 3.8v22.8q0 2 0.3 3.7 0.4 1.8 1.5 2.7 1.1 1 3.3 1z"/>
	<path id="Layer" class="s0" d="m608 1586.8v-49.6h20.4v6.3h-11.4v14.4h9.3v6.3h-9.3v22.6h-9z"/>
	<path id="Layer" fill-rule="evenodd" class="s0" d="m660.4 1586.8v-49.6h11.7q6 0 9.4 1.7 3.4 1.6 4.9 5.1 1.4 3.4 1.4 8.7v18.1q0 5.4-1.4 9-1.5 3.5-4.8 5.3-3.3 1.7-9.2 1.7c0 0-12 0-12 0zm9.1-6.3h2.7q3.1 0 4.5-1.1 1.3-1.1 1.6-3.2 0.3-2.1 0.3-5.2v-18.9q0-3.1-0.4-4.9-0.4-1.8-1.8-2.7-1.3-0.8-4.3-0.8h-2.7c0 0 0 36.8 0.1 36.8z"/>
	<path id="Layer" class="s0" d="m700.6 1586.8v-49.6h20.8v6.4h-11.7v14.3h9.2v6.3h-9.2v16.4h11.9v6.2h-21z"/>
	<path id="Layer" class="s0" d="m740.5 1586.8l-9.9-49.6h8l6.5 35.1 6.2-35.1h8.1l-9.9 49.6h-9z"/>
	<path id="Layer" class="s0" d="m770.7 1586.8v-49.6h20.8v6.4h-11.8v14.3h9.3v6.3h-9.3v16.4h11.9v6.2h-20.9z"/>
	<path id="Layer" class="s0" d="m803 1586.8v-49.6h9v43.4h12v6.2h-21z"/>
	<path id="Layer" fill-rule="evenodd" class="s0" d="m848 1587.5q-5.3 0-8.4-2-3.1-1.9-4.5-5.6-1.3-3.7-1.3-8.7v-18.5q0-5.1 1.3-8.6 1.4-3.6 4.5-5.5 3.1-1.9 8.4-1.9c3.5 0 6.4 0.6 8.5 1.9q3 1.9 4.4 5.5 1.4 3.5 1.4 8.6v18.6q0 4.9-1.4 8.6-1.4 3.6-4.4 5.6c-2.1 1.3-4.9 2-8.5 2zm0-6.7q2.3 0 3.3-1 1.1-0.9 1.5-2.7 0.3-1.7 0.3-3.7v-22.8q0-2.1-0.3-3.8-0.4-1.6-1.5-2.6-1.1-0.9-3.3-0.9-2.2 0-3.3 0.9-1.1 1-1.4 2.6-0.4 1.7-0.4 3.8v22.8q0 2 0.3 3.7 0.4 1.8 1.5 2.7c0.7 0.7 1.8 1 3.3 1z"/>
	<path id="Layer" fill-rule="evenodd" class="s0" d="m875.1 1586.8v-49.6h14.6q4.5 0 7.2 1.7 2.8 1.6 4.1 4.8c0.9 2.1 1.4 4.6 1.4 7.6q0 4.9-1.7 7.8-1.6 3-4.6 4.3-3 1.4-7 1.4h-4.9v22zm9-28.4h3.5q2.4 0 3.8-0.7 1.3-0.7 1.9-2.2 0.5-1.6 0.5-4.2c0-1.8-0.1-3.3-0.4-4.4q-0.4-1.7-1.7-2.5-1.3-0.8-4.1-0.8h-3.5c0 0 0 14.8 0 14.8z"/>
	<path id="Layer" class="s0" d="m913.5 1586.8v-49.6h20.8v6.4h-11.8v14.3h9.3v6.3h-9.3v16.4h11.9v6.2h-20.9z"/>
	<path id="Layer" fill-rule="evenodd" class="s0" d="m945.8 1586.8v-49.6h11.9q5 0 8.4 1.2c2.4 0.8 4.1 2.2 5.3 4.1q1.8 2.9 1.8 7.8 0 3-0.5 5.4-0.6 2.4-1.9 4.1-1.3 1.7-3.6 2.6l6.9 24.4h-9.1l-6-22.7h-4.1v22.7c0 0-9.1 0-9.1 0zm9.1-28.4h2.8q2.6 0 4.2-0.8c1-0.4 1.7-1.3 2.2-2.4q0.7-1.7 0.7-4.3 0-3.7-1.4-5.6-1.4-1.9-5.2-1.9h-3.3c0 0 0 15 0 15z"/>
	<path id="Layer" class="s0" d="m998.8 1587.5q-4.5 0-7.5-1.8-3-1.7-4.5-5.1-1.6-3.3-1.8-8.2l7.8-1.5c0.1 1.9 0.3 3.6 0.7 5q0.6 2.2 1.8 3.4 1.2 1.2 3.2 1.2 2.2 0 3.1-1.3 0.9-1.3 0.9-3.3 0-3.3-1.5-5.4-1.4-2-3.9-4.1l-6.2-5.5q-2.6-2.3-4.2-5.1-1.6-2.8-1.6-6.9 0-5.8 3.5-9 3.4-3.2 9.3-3.2 3.5 0 5.8 1.1 2.3 1 3.7 2.9 1.4 1.9 2.1 4.3 0.7 2.5 0.9 5.2l-7.8 1.3q-0.1-2.3-0.5-4.2-0.4-1.8-1.4-2.8c-0.7-0.7-1.7-1.1-3-1.1q-2 0-3.1 1.3-1 1.4-1 3.3 0 2.5 1 4.1 1 1.7 3 3.4l6.2 5.4q3 2.6 5.2 6.1 2.2 3.4 2.2 8.3 0 3.6-1.6 6.3-1.5 2.8-4.3 4.3-2.8 1.6-6.5 1.6"/>
	<path id="Layer" class="s1" d="m3.9 1590.1l-216.4-159.3v-55.5l216.4-164.8v59.4l-171.9 132.8 171.9 128.8v58.6z"/>
	<path id="Layer" class="s1" d="m1269.8 1590.1l216.4-159.3v-55.5l-216.4-164.8v59.4l171.9 132.8-171.9 128.8v58.6z"/>
</svg>